<?xml version="1.0" encoding="UTF-8" standalone="no"?>
<!-- Created with Inkscape (http://www.inkscape.org/) -->

<svg
   xmlns:dc="http://purl.org/dc/elements/1.1/"
   xmlns:cc="http://creativecommons.org/ns#"
   xmlns:rdf="http://www.w3.org/1999/02/22-rdf-syntax-ns#"
   xmlns:svg="http://www.w3.org/2000/svg"
   xmlns="http://www.w3.org/2000/svg"
   xmlns:xlink="http://www.w3.org/1999/xlink"
   xmlns:sodipodi="http://sodipodi.sourceforge.net/DTD/sodipodi-0.dtd"
   xmlns:inkscape="http://www.inkscape.org/namespaces/inkscape"
   id="svg2"
   sodipodi:version="0.32"
   inkscape:version="0.48.1 r9760"
   width="230"
   height="230"
   version="1.0"
   sodipodi:docname="templatizer.svg"
   inkscape:export-filename="/home/ben/play/templatizer/data/icons/scalable/templatizer-rough3.png"
   inkscape:export-xdpi="26.4"
   inkscape:export-ydpi="26.4">
  <sodipodi:namedview
     inkscape:window-height="743"
     inkscape:window-width="1280"
     inkscape:pageshadow="2"
     inkscape:pageopacity="0.0"
     guidetolerance="10.0"
     gridtolerance="10.0"
     objecttolerance="10.0"
     borderopacity="1.0"
     bordercolor="#666666"
     pagecolor="#ffffff"
     id="base"
     inkscape:zoom="0.96780777"
     inkscape:cx="-519.98367"
     inkscape:cy="111.46198"
     inkscape:window-x="0"
     inkscape:window-y="26"
     inkscape:current-layer="svg2"
     showgrid="false"
     inkscape:window-maximized="1" />
  <defs
     id="defs5">
    <inkscape:perspective
       id="perspective2960"
       inkscape:persp3d-origin="146.5 : 99 : 1"
       inkscape:vp_z="293 : 148.5 : 1"
       inkscape:vp_y="0 : 1000 : 0"
       inkscape:vp_x="0 : 148.5 : 1"
       sodipodi:type="inkscape:persp3d" />
    <linearGradient
       id="linearGradient2776">
      <stop
         style="stop-color:#ff0214;stop-opacity:0;"
         offset="0"
         id="stop2778" />
      <stop
         id="stop2786"
         offset="0.89285713"
         style="stop-color:#da0214;stop-opacity:0.49803922;" />
      <stop
         style="stop-color:#8a0214;stop-opacity:1;"
         offset="1"
         id="stop2780" />
    </linearGradient>
    <linearGradient
       id="linearGradient2766">
      <stop
         id="stop2768"
         offset="0"
         style="stop-color:#ffffff;stop-opacity:1;" />
      <stop
         style="stop-color:#eaeaea;stop-opacity:1;"
         offset="0.5"
         id="stop4694" />
      <stop
         id="stop2770"
         offset="1"
         style="stop-color:#cacaca;stop-opacity:1;" />
    </linearGradient>
    <clipPath
       id="clipPath4689"
       clipPathUnits="userSpaceOnUse">
      <path
         style="fill:#2b0000;fill-opacity:1"
         d="m -242.98847,334.54412 c -0.62195,-0.005 -1.2558,0.0129 -1.88009,0.0283 -21.45792,0.21899 -41.14892,11.96495 -55.07173,27.36575 -0.36758,0.41829 -0.77675,0.80014 -1.21482,1.13082 -2.67714,2.0209 -6.46991,2.29281 -8.9376,-0.50887 -0.42115,-0.31848 -0.84269,-0.62405 -1.27265,-0.93292 -13.2093,-9.48854 -30.50001,-14.35205 -46.53912,-9.58367 -2.1524,0.53875 -4.25496,1.19679 -6.30547,1.97893 -10.15945,3.87514 -19.0198,10.60863 -26.08968,18.82809 -4.15981,4.16466 -7.79418,8.79068 -10.84657,13.73943 -9.05151,14.67499 -13.00655,32.24116 -10.52842,49.38841 0.72801,5.52963 2.38918,10.6835 4.68573,15.57699 6.64304,14.155 18.65226,25.98506 29.18454,37.37349 3.03012,2.97488 6.1229,5.90032 9.25577,8.76384 26.2693,24.01081 55.86018,44.40859 83.67781,66.57681 2.28795,1.46527 5.42117,5.55248 6.01624,0.59369 0.0111,-0.0286 0.0178,-0.0562 0.0289,-0.0848 1.07439,-2.7648 2.2237,-5.50641 3.41306,-8.22671 10.30713,-23.57435 24.89354,-45.37182 43.21281,-63.72151 1.47364,-1.60721 2.96279,-3.20625 4.48326,-4.7777 15.6126,-16.13594 33.3236,-30.67801 45.41105,-49.61458 1.39186,-2.3264 2.60651,-4.72373 3.61553,-7.18068 8.11705,-19.7648 4.15988,-43.20417 -6.47903,-61.43161 -2.29506,-3.86174 -4.97008,-7.562 -7.9831,-10.9972 -12.47057,-14.21787 -30.55623,-24.12492 -49.83644,-24.28427 z m -8.30125,18.6302 c 16.66471,0.13189 32.31826,8.33186 43.0971,20.10025 2.60427,2.84338 4.90026,5.90665 6.88396,9.10308 9.19566,15.08717 12.59829,34.47054 5.58239,50.83021 -0.87215,2.03366 -1.89184,4.03944 -3.09489,5.96505 -10.4477,15.67413 -25.75557,27.69265 -39.2502,41.04864 -1.3142,1.30073 -2.60213,2.62755 -3.87584,3.95788 -15.83414,15.18834 -28.46125,33.23965 -37.37012,52.75258 -1.02802,2.25164 -1.99273,4.5247 -2.92134,6.81318 -0.01,0.0236 -0.0193,0.0329 -0.0289,0.0565 -0.51434,4.10448 -3.22877,0.73225 -5.20635,-0.4806 -24.04394,-18.34902 -49.63388,-35.25314 -72.33953,-55.12731 -2.70786,-2.3702 -5.36405,-4.77485 -7.98309,-7.23722 -9.1035,-9.42641 -19.48008,-19.21151 -25.22193,-30.92784 -1.98501,-4.05043 -3.42015,-8.34261 -4.04939,-12.91957 -2.14194,-14.19308 1.25859,-28.73228 9.08221,-40.87902 2.6383,-4.09619 5.80486,-7.91755 9.40038,-11.36471 6.11077,-6.8034 13.75073,-12.36948 22.53198,-15.57699 1.77235,-0.64739 3.60626,-1.19375 5.46668,-1.63969 13.86327,-3.94687 28.78736,0.0902 40.20468,7.94399 0.37165,0.25564 0.73512,0.49967 1.09913,0.76328 2.13293,2.31899 5.40878,2.09679 7.72276,0.42407 0.37865,-0.27372 0.75251,-0.58671 1.0702,-0.93294 12.03407,-12.74751 29.0334,-22.46333 47.58037,-22.64458 0.5396,-0.0127 1.08219,-0.0325 1.61977,-0.0283 z"
         id="path4351" />
    </clipPath>
    <radialGradient
       spreadMethod="reflect"
       gradientUnits="userSpaceOnUse"
       gradientTransform="matrix(0.86361,-0.268102,0.322585,1.03912,-62.62027,-50.48978)"
       r="132.34866"
       fy="144.6144"
       fx="-152.87935"
       cy="144.6144"
       cx="-152.87935"
       id="radialGradient4692"
       xlink:href="#linearGradient2766"
       inkscape:collect="always" />
    <radialGradient
       r="132.34866"
       fy="144.6144"
       fx="-152.87935"
       cy="144.6144"
       cx="-152.87935"
       spreadMethod="reflect"
       gradientTransform="matrix(0.86361,-0.268102,0.322585,1.03912,-62.62027,-50.48978)"
       gradientUnits="userSpaceOnUse"
       id="radialGradient4788"
       xlink:href="#linearGradient2766"
       inkscape:collect="always" />
    <radialGradient
       r="132.34866"
       fy="144.6144"
       fx="-152.87935"
       cy="144.6144"
       cx="-152.87935"
       spreadMethod="reflect"
       gradientTransform="matrix(0.86361,-0.268102,0.322585,1.03912,-62.62027,-50.48978)"
       gradientUnits="userSpaceOnUse"
       id="radialGradient4868"
       xlink:href="#linearGradient2766"
       inkscape:collect="always" />
    <radialGradient
       r="132.34866"
       fy="144.6144"
       fx="-152.87935"
       cy="144.6144"
       cx="-152.87935"
       spreadMethod="reflect"
       gradientTransform="matrix(0.86361,-0.268102,0.322585,1.03912,-62.62027,-50.48978)"
       gradientUnits="userSpaceOnUse"
       id="radialGradient3011"
       xlink:href="#linearGradient2766"
       inkscape:collect="always" />
    <filter
       height="1.1974877"
       y="-0.098743871"
       width="1.2212523"
       x="-0.11062613"
       id="filter3905"
       inkscape:collect="always"
       color-interpolation-filters="sRGB">
      <feGaussianBlur
         id="feGaussianBlur3907"
         stdDeviation="7.0090634"
         inkscape:collect="always" />
    </filter>
    <radialGradient
       r="132.34866"
       fy="144.6144"
       fx="-152.87935"
       cy="144.6144"
       cx="-152.87935"
       spreadMethod="reflect"
       gradientTransform="matrix(0.86361,-0.268102,0.322585,1.03912,-62.62027,-50.48978)"
       gradientUnits="userSpaceOnUse"
       id="radialGradient3909"
       xlink:href="#linearGradient2766"
       inkscape:collect="always" />
    <radialGradient
       r="132.34866"
       fy="144.6144"
       fx="-152.87935"
       cy="144.6144"
       cx="-152.87935"
       spreadMethod="reflect"
       gradientTransform="matrix(-0.58930933,-0.18294717,-0.22012523,0.70907367,53.834647,-6.1918956)"
       gradientUnits="userSpaceOnUse"
       id="radialGradient3949"
       xlink:href="#linearGradient2766"
       inkscape:collect="always" />
    <filter
       inkscape:label="filter2"
       id="filter4065"
       color-interpolation-filters="sRGB">
      <feColorMatrix
         type="saturate"
         values="0.82905982905982911"
         id="feColorMatrix4067" />
    </filter>
    <radialGradient
       inkscape:collect="always"
       xlink:href="#linearGradient2766"
       id="radialGradient4197"
       gradientUnits="userSpaceOnUse"
       gradientTransform="matrix(-0.58930933,-0.18294717,-0.22012523,0.70907367,25.655911,-36.15388)"
       spreadMethod="reflect"
       cx="-152.87935"
       cy="144.6144"
       fx="-152.87935"
       fy="144.6144"
       r="132.34866" />
  </defs>
  <metadata
     id="metadata7">
    <rdf:RDF>
      <cc:Work
         rdf:about="">
        <dc:format>image/svg+xml</dc:format>
        <dc:type
           rdf:resource="http://purl.org/dc/dcmitype/StillImage" />
        <dc:title></dc:title>
        <dc:contributor>
          <cc:Agent>
            <dc:title>http://commons.wikimedia.org/wiki/File:White_heart.svg</dc:title>
          </cc:Agent>
        </dc:contributor>
        <dc:description>modified from the original to include a t in the midde.  by ben asselstine.

   Copyright (C) 2011 Ben Asselstine
 
   This program is free software; you can redistribute it and/or modify
   it under the terms of the GNU General Public License as published by
   the Free Software Foundation; either version 3 of the License, or
   (at your option) any later version.
 
   This program is distributed in the hope that it will be useful,
   but WITHOUT ANY WARRANTY; without even the implied warranty of
   MERCHANTABILITY or FITNESS FOR A PARTICULAR PURPOSE.  See the
   GNU Library General Public License for more details.
 
   You should have received a copy of the GNU General Public License
   along with this program; if not, write to the Free Software
   Foundation, Inc., 51 Franklin Street, Fifth Floor, Boston, MA 
   02110-1301, USA.
</dc:description>
        <cc:license
           rdf:resource="http://www.gnu.org/copyleft/gpl.html" />
      </cc:Work>
    </rdf:RDF>
  </metadata>
  <path
     style="opacity:0.8495575;fill:#545454;fill-opacity:1;filter:url(#filter3905)"
     d="m 127.32058,42.840494 c 13.47607,0.211639 23.87427,8.134284 29.56002,19.269461 13.94143,-9.766967 30.38964,-11.657151 40.61766,-4.157359 8.33743,5.503318 12.88697,15.630229 15.2257,26.254859 3.14286,17.664325 -3.98366,41.131465 -20.17439,56.976645 -26.54353,27.72114 -58.3527,46.65456 -88.21782,68.40517 -3.51925,3.02976 -9.600886,5.88747 -10.274086,0.7985 -1.3227,-16.22861 -3.42094,-32.34008 -10.48201,-45.31478 -6.8961,-15.40251 -18.506092,-27.46409 -21.82271,-45.321 C 59.065346,99.978695 71.619006,75.023445 89.291524,59.365097 100.80601,49.249139 114.84882,42.399347 127.32058,42.840494 z"
     id="path4942" />
  <path
     id="path4324"
     d="m 100.41326,201.71115 c 4.29125,-3.4236 14.86489,-11.76792 23.49699,-18.54295 26.06616,-20.4584 36.8569,-29.90224 46.94108,-41.0819 17.12799,-18.98868 21.8469,-28.64687 21.83803,-44.695835 -0.009,-17.10345 -6.11156,-31.132452 -19.30664,-44.386843 -6.2064,-6.234303 -8.03226,-7.630426 -13.64758,-10.435493 -14.95946,-7.472821 -29.77794,-6.533411 -43.47763,2.75624 -2.17124,1.472297 -4.32635,2.90338 -4.78913,3.180183 -0.53212,0.318272 -2.16261,-0.916731 -4.43547,-3.359633 C 89.870364,26.698398 66.166153,20.848732 46.116681,30.112159 25.464952,39.653844 12.159769,60.743332 12.066242,84.084075 c -0.03428,8.55569 1.0892,13.69768 4.62191,21.153755 3.628837,7.65895 9.781698,15.05972 26.259281,31.58515 15.93994,15.98621 23.998815,25.33653 31.002271,35.97037 4.81689,7.31384 11.70183,20.87567 14.80961,29.1717 1.2302,3.28395 2.60009,5.97082 3.0442,5.97082 0.44411,0 4.3185,-2.80112 8.609746,-6.22472 z"
     style="fill:url(#radialGradient4197);fill-opacity:1" />
  <g
     transform="matrix(-0.682379,0,0,0.682379,-17.074846,-1.7007146)"
     id="g4708">
    <g
       id="g4584"
       transform="translate(53.67653,-18.37914)">
      <path
         style="opacity:0.1;fill:#ffffff;fill-opacity:1"
         d="m -140.96875,130.125 c -2.51031,2.22593 -1.23053,7.39031 -2.375,10.65625 -3.0561,20.46793 -10.74013,39.83967 -18.78125,58.875 12.29149,-10.51078 27.43413,-20.83921 31.09375,-37.59375 2.1948,-10.2071 2.36388,-23.53808 -7.1875,-30.125 -0.84944,-0.52186 -1.64853,-1.84137 -2.75,-1.8125 z"
         id="path4586" />
      <path
         style="opacity:0.1;fill:#ffffff;fill-opacity:1"
         d="m -140.5625,129 c -4.57782,0.19748 -2.25405,7.11361 -3.6875,10.0625 -2.84296,22.14787 -11.98128,43.32513 -20.15625,63.5 9.94957,-7.49206 19.80156,-15.42648 27.625,-25.1875 7.76656,-11.27943 11.02215,-27.04944 5.125,-39.8125 -2.25629,-3.30805 -5.38629,-6.7956 -8.90625,-8.5625 z"
         id="path4591" />
      <path
         style="opacity:0.1;fill:#ffffff;fill-opacity:1"
         d="m -141.0625,127.90625 c -5.26329,0.27828 -2.77971,7.71027 -4.28125,11 -2.80475,22.67886 -12.51512,43.6912 -20.5,64.8125 4.48977,0.1237 7.77307,-5.42633 11.46875,-7.59375 11.08694,-9.15027 22.77626,-19.489 25.71875,-34.3125 2.10545,-10.84764 1.92735,-24.40468 -8.03125,-31.53125 -1.23218,-0.8127 -2.66821,-2.66471 -4.375,-2.375 z"
         id="path4596" />
      <path
         style="opacity:0.1;fill:#ffffff;fill-opacity:1"
         d="m -141.25,126.8125 c -6.47314,0.49331 -3.67048,9.36813 -5.375,13.46875 -3.12822,22.03204 -12.40381,42.5225 -20.34375,63.09375 -0.116,3.23562 4.91973,0.97142 5.9375,-0.34375 12.33499,-10.59828 27.40992,-20.62148 32.28125,-36.875 2.94728,-10.1676 4.05125,-22.80152 -2.4375,-31.8125 -2.76427,-2.66393 -5.82724,-7.58228 -10.0625,-7.53125 z"
         id="path4601" />
      <path
         style="opacity:0.1;fill:#ffffff;fill-opacity:1"
         d="m -141.4375,125.71875 c -2.85788,0.0641 -5.0723,2.16901 -5,5.0625 -1.91462,19.06848 -7.63132,37.51677 -14.83071,55.23482 -1.98363,6.03983 -5.72194,11.60011 -6.82554,17.89018 0.2879,3.32316 5.16575,2.39668 6.84375,0.59375 8.97537,-7.0213 17.85985,-14.43213 25.49202,-22.91136 8.42664,-10.63052 12.096,-24.72054 9.61466,-38.24845 -0.98886,-7.51312 -6.72927,-13.78202 -13.10668,-17.46519 -0.69954,-0.21019 -1.4614,-0.29342 -2.1875,-0.15625 z"
         id="path4606" />
      <path
         style="opacity:0.1;fill:#ffffff;fill-opacity:1"
         d="m -141.59375,124.59375 c -3.04847,0.24727 -5.78572,2.24459 -5.83747,5.51147 -1.53287,11.69987 -3.48732,23.43921 -7.35003,34.70728 -3.91179,12.80705 -9.49239,24.9611 -14.19724,37.41397 -1.20939,2.79376 1.31166,5.50182 4.16599,5.02353 5.38658,-1.21714 9.11593,-6.11537 13.43128,-9.3239 9.10144,-7.90633 18.98027,-15.8017 23.36403,-27.39927 4.30346,-10.19971 5.07642,-22.1389 1.48594,-32.68308 -2.53415,-5.51819 -7.17351,-10.32453 -12.59375,-13.09375 -0.80032,-0.21197 -1.6343,-0.30137 -2.46875,-0.15625 z"
         id="path4611" />
      <path
         style="opacity:0.1;fill:#ffffff;fill-opacity:1"
         d="m -141.71875,123.5 c -5.67901,0.0195 -7.35094,5.79788 -7.45681,10.45828 -2.28613,23.94001 -12.32382,46.09611 -20.94944,68.29172 -1.86727,5.50917 5.8766,7.96632 9.375,4.59375 10.39644,-8.1968 21.37186,-16.4882 29.15625,-27.25 8.36542,-12.57484 11.38116,-29.73515 5.21875,-44 -3.34515,-5.05375 -7.78118,-10.89351 -14.03125,-12.15625 -0.43808,0.009 -0.87915,-0.0317 -1.3125,0.0625 z"
         id="path4616" />
      <path
         style="opacity:0.1;fill:#ffffff;fill-opacity:1"
         d="m -141.28125,122.34375 c -5.73822,-0.12 -9.02268,5.19345 -8.84375,10.46875 -2.22779,24.25083 -12.30726,46.68233 -21.09375,69.15625 -2.01939,5.982 5.88657,9.66308 10.34375,6.28125 10.61179,-7.93689 21.15859,-16.4625 29.43026,-26.87244 9.22356,-13.17373 12.59814,-31.35413 6.03849,-46.34631 -3.57277,-5.27182 -8.91542,-12.52684 -15.875,-12.6875 z"
         id="path4621" />
      <path
         style="opacity:0.1;fill:#ffffff;fill-opacity:1"
         d="m -141.96875,121.28125 c -5.97851,0.21295 -9.36149,5.83935 -9.25,11.375 -2.23123,24.26739 -12.3626,46.676 -21.09375,69.09375 -2.11489,6.37291 5.80542,11.08587 11.09375,7.90625 10.56586,-6.91339 19.86305,-15.78445 28.625,-24.875 11.00975,-13.71922 15.36784,-33.77882 8.1875,-50.25 -3.72863,-5.69625 -8.9109,-12.25299 -16,-13.3125 -0.52115,0.0135 -1.04635,-0.0399 -1.5625,0.0625 z"
         id="path4626" />
      <path
         style="opacity:0.1;fill:#ffffff;fill-opacity:1"
         d="m -141.53125,120.125 c -5.99139,0.0946 -10.56531,5.09497 -10.625,11 -2.10992,24.30969 -11.9506,47.07051 -21,69.46875 -2.82672,6.5498 4.25606,13.05644 10.65625,10.75 10.26809,-4.92408 17.93088,-13.99008 26.53125,-21.3125 14.3977,-13.82493 20.53154,-36.69684 12.84375,-55.40625 -3.80228,-6.24988 -10.35173,-14.62862 -18.40625,-14.5 z"
         id="path4631" />
    </g>
    <path
       style="fill:#ffffff;fill-opacity:0.93989066;stroke:#fffffe;stroke-width:5;stroke-linecap:round;stroke-linejoin:round;stroke-miterlimit:4;stroke-opacity:0.37704917;stroke-dasharray:none"
       d="m -89.63634,162.04206 c 5.556862,-5.65327 6.914,-7.33539 8.555628,-10.60436 2.639329,-5.25566 3.642092,-9.96417 3.384395,-15.8915 -0.234271,-5.38824 -1.177071,-7.98659 -4.046509,-11.15213 -2.478755,-2.73458 -3.355865,-3.15147 -5.10831,-2.42799 -1.594254,0.65816 -1.639121,0.79978 -2.362358,7.45776 -0.97519,8.97734 -4.018839,20.07836 -9.587436,34.96784 -1.1534,3.08407 -0.79182,4.3501 1.245856,4.36189 1.054824,0.006 2.617857,-1.31866 7.918734,-6.71151 z"
       id="path4322" />
  </g>
  <g
     style="filter:url(#filter4065)"
     transform="matrix(-0.75883957,0,0,0.7897527,-119.42117,-238.37533)"
     clip-path="url(#clipPath4689)"
     id="g4542">
    <path
       id="path4479"
       d="m -239.9286,328.87054 c -23.14406,-0.34191 -44.14009,13.73868 -59.0625,30.5625 -5.4368,4.60322 -13.36202,2.73523 -17.78517,-2.23371 -15.42891,-11.48267 -36.86071,-14.71776 -54.30858,-5.92254 -15.47262,7.23966 -27.19683,20.64386 -35.93934,35.0386 -13.15306,23.36423 -14.47485,54.62651 2.12684,76.6489 32.44682,44.32085 79.13516,74.50493 121.14434,108.85545 3.69489,4.68741 3.89939,-4.02401 5.84233,-6.40759 13.06946,-30.67945 33.33114,-57.47267 57.05166,-80.83948 16.61932,-17.47691 36.28037,-33.36715 46.61792,-55.70213 13.65757,-36.13178 -6.82945,-80.67574 -42.40625,-95.28125 -7.28892,-3.02487 -15.28826,-4.84083 -23.28125,-4.71875 z m -8.125,10.5625 c 34.09149,0.33531 63.79527,29.10284 68.3125,62.375 3.1502,18.28998 -2.60694,37.50875 -15.26518,51.01822 -21.39547,24.8223 -48.8314,44.40877 -65.98357,72.92353 -7.05747,10.77601 -12.32338,22.6917 -17.2825,34.43325 -4.94426,5.48093 -11.0529,-0.92819 -15.10039,-4.07369 -36.67084,-28.55417 -77.21543,-53.8946 -105.61836,-91.30131 -17.59431,-22.38795 -15.19082,-55.63627 0.82242,-78.13246 11.92605,-16.87788 29.77232,-31.17384 51.02133,-32.77379 14.69008,-1.26438 29.35765,4.55945 40.8125,13.03125 4.84447,-3.19433 8.48253,-8.65683 13.60833,-11.82427 12.74161,-9.77551 28.51541,-15.87896 44.67292,-15.67573 z"
       style="opacity:0.1;fill:#0d0d0d;fill-opacity:1" />
    <path
       id="path4484"
       d="m -239.95985,327.74554 c -23.46591,-0.24975 -44.50271,13.71308 -59.6875,30.78125 -5.07385,4.34831 -12.37053,2.39941 -16.46131,-2.2182 -15.73319,-11.72801 -37.68941,-15.00382 -55.41369,-6.06305 -15.50884,7.23795 -27.04559,20.41117 -36,34.625 -13.75465,23.84103 -15.37281,56.09082 1.71875,78.75 32.09342,43.84527 78.16357,73.93436 119.80572,107.81938 2.46122,1.73691 5.84881,6.57725 6.41303,0.86812 12.71835,-32.38695 33.37233,-61.13287 58.10653,-85.52637 16.93117,-17.8496 36.98271,-34.02903 47.89347,-56.56738 16.07848,-40.29122 -10.52056,-91.14322 -52.9375,-100.96875 -4.37049,-0.98553 -8.86096,-1.59252 -13.4375,-1.5 z m -7.9375,12.8125 c 34.11234,0.4076 63.6677,29.79474 67.28125,63.21875 2.5938,17.47429 -3.28041,35.46938 -15.23393,48.36197 -21.408,24.71072 -48.89002,44.44431 -66.08131,73.01477 -7.00093,10.78065 -12.38837,22.58603 -17.21601,34.34201 -4.97902,4.96813 -10.30709,-2.38478 -14.32862,-4.87337 -36.56922,-28.39331 -77.04645,-53.75828 -105.17928,-91.2605 -17.64701,-23.14912 -13.74951,-57.47912 3.90629,-79.46548 11.8794,-15.4489 29.18301,-28.08144 49.19536,-28.96315 14.15349,-0.81464 27.88921,5.03075 38.96875,13.15625 4.75727,-1.55326 7.19997,-7.1544 11.52096,-9.73063 13.14371,-10.96643 29.82553,-18.09968 47.16654,-17.80062 z"
       style="opacity:0.1;fill:#0d0d0d;fill-opacity:1" />
    <path
       id="path4489"
       d="m -239.9911,326.65179 c -23.73046,-0.3104 -45.21905,13.93835 -60.3125,30.96875 -4.75782,4.13936 -11.39583,2.02085 -15.12211,-2.21197 -16.05152,-11.93172 -38.31261,-15.26865 -56.53414,-6.19428 -15.66048,7.26844 -27.44269,20.68365 -36.53125,35.09375 -13.94675,24.27065 -15.58628,56.88408 1.78125,79.9375 32.84018,44.92126 80.56042,75.64796 123.14626,110.57028 2.19077,2.29003 3.91572,3.23846 4.4526,-0.74522 12.46501,-32.11135 32.53293,-60.71168 56.81327,-84.85813 17.53617,-18.64567 38.34533,-35.12978 49.68162,-58.46693 14.20025,-35.20688 -3.99423,-79.12671 -37.28283,-96.41876 -9.2362,-4.89912 -19.61992,-7.82239 -30.09217,-7.67499 z m -8.0625,15 c 34.39287,0.37908 63.85179,30.5234 66.5625,64.21875 2.04305,16.98374 -4.28127,33.97816 -15.84375,46.3125 -21.73015,24.66651 -49.17588,44.64342 -66.15625,73.375 -6.68996,10.49507 -11.91907,21.80864 -16.53125,33.25 -4.61756,4.09484 -9.02826,-3.17375 -12.76335,-5.06444 -36.76398,-28.61103 -77.8619,-54.17794 -105.74455,-92.13193 -17.16972,-23.65289 -12.03688,-58.23014 6.6954,-79.52238 12.45214,-15.50931 31.36069,-27.3976 51.90413,-25.99742 11.93102,0.70372 23.26686,5.92089 32.68962,12.99742 5.17527,0.19759 7.30138,-6.37209 11.44432,-8.65362 13.09401,-11.42317 30.10031,-19.04216 47.74318,-18.78388 z"
       style="opacity:0.1;fill:#0d0d0d;fill-opacity:1" />
    <path
       id="path4494"
       d="m -240.02235,325.52679 c -23.94801,-0.24049 -45.64924,13.92454 -60.9375,31.1875 -3.91154,3.475 -9.84168,2.16305 -13,-1.59375 -16.13194,-12.37738 -38.74603,-16.26277 -57.5,-7.375 -16.30964,7.26713 -28.6007,21.09297 -37.96875,36 -14.23082,24.56014 -15.77449,57.83703 1.8125,81.125 32.73489,44.91912 80.63426,75.78364 123.32877,110.79523 1.56221,0.52154 4.71669,5.49259 4.92123,2.07977 12.47767,-33.50014 33.19739,-63.4269 58.57426,-88.47239 17.35336,-18.38745 38.04518,-34.96211 49.23824,-58.15261 11.76428,-29.05439 1.53619,-64.4217 -20.91911,-85.58798 -12.75317,-12.08619 -29.8053,-20.18014 -47.54964,-20.00577 z m -8.03125,17.25 c 36.20219,0.39664 66.39379,34.09067 65.71875,69.8125 0.59779,17.80059 -9.64853,33.31182 -21.71357,45.44981 -21.91588,22.46936 -47.07675,42.91517 -62.66143,70.70644 -5.68871,9.27088 -10.21358,19.53746 -14.28125,29.5 -4.25346,2.71073 -7.62365,-3.99751 -11.12878,-5.38924 -36.42974,-28.32092 -76.99375,-53.64686 -104.93372,-91.07951 -17.50179,-23.22516 -12.57544,-57.85093 6.0625,-78.9375 15.7789,-21.39999 46.53642,-33.39823 71.21875,-20.15625 4.94615,1.60609 8.40103,6.2131 13.25,7.625 5.90022,-1.11158 8.46721,-7.96078 13.5625,-10.8125 12.59873,-10.25261 28.41119,-16.96998 44.90625,-16.71875 z"
       style="opacity:0.1;fill:#0d0d0d;fill-opacity:1" />
    <path
       id="path4499"
       d="m -240.0536,324.43304 c -23.84349,-0.11227 -45.56299,13.29801 -60.84375,30.8125 -3.10904,3.20463 -8.73825,3.25573 -11.53689,-0.39756 -14.81935,-11.41458 -35.36884,-16.81654 -53.43469,-10.31804 -14.77999,4.33321 -26.41153,14.92734 -35.99717,26.49685 -17.18781,20.31842 -24.37959,49.57985 -16.52889,75.27211 6.7455,19.75585 22.12947,34.67463 36.02432,49.78582 31.38335,30.92921 67.73944,56.18409 101.81707,83.94207 2.08251,1.74332 2.07407,-1.70418 2.61666,-2.91242 11.58254,-30.07959 29.33387,-57.72434 51.96701,-80.74 18.12548,-19.97127 40.17676,-37.25297 53.57258,-60.87883 11.06334,-21.60927 7.93775,-48.5031 -3.17242,-69.54644 -12.25411,-23.4236 -37.30941,-41.74494 -64.48383,-41.51606 z m -8,19.4375 c 28.57837,0.4063 54.20679,22.15546 61.82252,49.30546 5.42836,17.49377 3.24673,37.97923 -8.67096,52.3377 -13.55629,17.82095 -31.49444,31.68024 -46.57793,48.09527 -17.06881,17.89397 -30.70166,39.04408 -39.54238,62.04282 0.008,2.49703 -2.92665,2.85731 -4.3125,1.0625 -30.52926,-24.00883 -63.64894,-45.50442 -91.30844,-73.06087 -12.74889,-13.39195 -27.12754,-27.72797 -29.54316,-46.92771 -3.13467,-21.71498 5.66644,-44.07128 21.44535,-59.01142 13.39148,-14.8461 35.00048,-23.47962 54.72984,-17.68246 7.86118,2.05611 15.12421,6.08549 21.45766,10.96371 5.18718,1.9833 8.24518,-3.71866 11.58585,-6.51628 13.15924,-12.42053 30.5646,-20.85491 48.91415,-20.60872 z"
       style="opacity:0.1;fill:#0d0d0d;fill-opacity:1" />
    <path
       id="path4504"
       d="m -240.08485,323.30804 c -24.05292,-0.10387 -46.13674,13.42671 -61.5625,31.125 -2.79373,2.84727 -7.56683,2.79612 -10.03819,-0.39583 -15.14808,-11.69494 -36.05782,-17.19333 -54.49744,-10.57505 -14.68152,4.31006 -26.54318,14.78083 -36.07711,26.32916 -18.12105,21.07179 -25.57901,51.78926 -16.66851,78.42297 7.2125,19.33411 22.43812,34.25092 36.28125,49.15625 31.33433,30.75491 67.54386,55.96856 101.5,83.59375 1.85746,1.80151 4.11985,-0.31384 3.875,-2.46875 11.61075,-30.5914 29.54249,-58.44785 52.4879,-81.78291 18.19278,-19.7986 39.91352,-37.08815 53.3871,-60.68584 11.39374,-22.3174 7.99264,-49.93102 -3.65625,-71.53125 -12.73579,-23.39582 -37.74468,-41.38065 -65.03125,-41.1875 z m -7.96875,21.6875 c 26.66373,0.38954 50.86728,19.75104 59.43397,44.50431 6.7891,18.08981 5.53144,40.06042 -7.15741,55.32635 -13.86964,18.18373 -32.32589,32.35914 -47.68495,49.26477 -16.96259,18.05086 -30.5311,39.62733 -39.21661,62.68582 -3.49681,-1.32837 -6.20977,-4.67054 -9.44242,-6.71102 -28.49621,-21.92172 -58.65088,-42.04909 -84.12529,-67.59483 -12.60912,-13.26533 -26.77718,-27.46761 -28.8885,-46.45218 -2.87098,-21.20283 5.74137,-42.8695 21.07733,-57.4127 12.88508,-14.30225 33.3112,-22.7904 52.42249,-17.86026 8.37503,1.97556 16.03449,6.25694 22.67514,11.28099 4.49724,1.9571 8.43371,-1.97327 11.05878,-5.1329 13.21629,-13.06061 30.91649,-22.17528 49.84747,-21.89835 z"
       style="opacity:0.1;fill:#0d0d0d;fill-opacity:1" />
    <path
       id="path4509"
       d="m -240.08485,322.21429 c -24.68833,-0.19636 -47.03757,13.92586 -62.90625,31.875 -5.11992,4.24142 -9.08303,-2.61942 -13.25,-4.5625 -16.83904,-11.10577 -39.27666,-13.40772 -57.5625,-4.34375 -16.54143,7.60149 -29.00178,21.75722 -38.53125,36.9375 -14.55135,25.13066 -16.31959,59.13829 1.03125,83.34375 33.29624,46.40907 82.33225,77.75773 125.96875,113.65625 2.10639,2.37896 7.47865,5.9924 8.875,1.03125 11.52379,-32.96117 31.97051,-62.30463 56.47997,-86.94167 18.12655,-19.27039 39.91261,-36.6241 51.52003,-60.80833 12.7716,-31.56521 0.81777,-70.24787 -24.62857,-91.90737 -12.96323,-11.1975 -29.68366,-18.49735 -46.99643,-18.28013 z m -7.96875,23.875 c 37.18834,0.44961 67.32825,37.97141 61.78125,74.34375 -2.90503,20.78796 -20.07134,35.08991 -33.9872,49.03531 -22.63474,20.85432 -44.19119,43.97189 -57.19873,72.27092 -2.27813,4.18336 -4.14097,9.9425 -6.09532,13.53752 -38.06608,-30.25552 -81.2048,-56.09424 -110.75,-95.375 -17.52172,-23.2392 -11.20044,-58.04528 8.5,-77.84375 13.32898,-16.28117 36.34237,-26.34864 56.875,-19.40625 7.44174,1.87494 13.7864,6.69077 20.21875,10.625 7.86437,2.09222 11.6379,-7.14519 17.21146,-10.66449 12.18591,-10.12917 27.49159,-16.74221 43.44479,-16.52301 z"
       style="opacity:0.1;fill:#0d0d0d;fill-opacity:1" />
    <path
       id="path4514"
       d="m -240.08485,321.08929 c -25.0379,-0.23405 -47.77385,14.25358 -63.9375,32.375 -4.66241,3.09521 -7.65708,-3.45458 -11.625,-4.875 -17.15812,-11.32849 -40.04797,-13.64012 -58.625,-4.40625 -16.73104,7.66363 -29.41614,22.02973 -39.03125,37.40625 -14.77252,25.51378 -16.51666,59.93805 1.09375,84.5 33.36115,46.59227 82.4852,77.91977 126.21875,113.9375 2.46533,2.69447 8.19525,6.25235 10.34375,1.15625 11.57563,-33.5157 32.49102,-63.32363 57.34963,-88.09557 17.93784,-19.02048 39.40188,-36.23328 50.86912,-60.27943 13.08766,-32.32495 0.64449,-71.89251 -25.71875,-93.84375 -13.01237,-10.93483 -29.73151,-18.08069 -46.9375,-17.875 z m -7.96875,26.125 c 33.3118,0.35828 61.50398,31.57468 61.28125,64.4375 0.89833,16.58015 -8.65512,31.32787 -19.875,42.65625 -22.29504,22.95771 -47.91392,43.7188 -63.90625,72.15625 -5.10791,8.70743 -9.62068,17.76982 -13.34375,27.125 -37.43852,-29.5655 -79.43364,-55.08952 -108.75,-93.25 -16.2833,-20.68335 -13.0793,-51.49379 2.59375,-71.625 11.02494,-14.57837 27.28715,-26.88699 46.21875,-27.1875 12.48428,-0.29743 24.37922,5.29206 34.125,12.59375 8.00782,3.16855 12.88084,-6.07961 18.125,-9.96875 12.06924,-10.34129 27.51893,-17.18238 43.53125,-16.9375 z"
       style="opacity:0.1;fill:#0d0d0d;fill-opacity:1" />
    <path
       id="path4519"
       d="m -239.20985,319.96429 c -25.60294,-0.50844 -48.95008,14.04948 -65.5625,32.65625 -4.20015,2.24219 -6.57383,-3.95329 -10.3125,-5 -17.1704,-11.25698 -39.9208,-13.76903 -58.65625,-4.9375 -17.43839,7.73844 -30.69641,22.50352 -40.53125,38.375 -14.97108,25.86004 -16.7108,60.75823 1.15625,85.65625 31.04345,43.53347 76.19093,73.78655 117.37891,106.899 5.60582,3.33695 9.73208,9.88634 16.21484,11.351 6.22497,-0.20316 5.37798,-8.11092 8.0625,-11.96875 12.47063,-30.99473 32.59204,-58.15798 56.27528,-81.52176 17.49104,-18.25047 37.80688,-35.06058 48.78722,-58.25949 13.74423,-34.10498 -0.26531,-75.87313 -29.1875,-97.59375 -12.45689,-9.56031 -27.85303,-15.57308 -43.625,-15.65625 z m -8.875,28.34375 c 33.5088,0.48106 61.29175,32.17787 60.21875,65.09375 0.35846,17.86215 -11.57036,32.27856 -23.53125,44.3125 -22.71151,22.11757 -47.23885,43.72508 -62.375,72.125 -4.04227,6.95547 -7.47582,14.91398 -10.75,21.875 -37.23915,-29.4305 -78.89843,-54.60881 -107.79543,-92.84822 -17.52327,-23.04632 -10.64049,-57.6746 9.60793,-76.77678 17.07564,-21.92183 51.31739,-25.89174 72.0625,-7.15625 7.03076,3.45791 12.98257,-3.0056 17.25,-7.71875 12.37054,-11.39828 28.2784,-19.09481 45.3125,-18.90625 z"
       style="opacity:0.1;fill:#0d0d0d;fill-opacity:1" />
    <path
       id="path4524"
       d="m -240.08485,318.87054 c -25.50254,-0.22641 -48.73344,14.28681 -65.34375,32.84375 -3.29729,1.49296 -5.25237,-3.82004 -8.37182,-4.57295 -17.56118,-11.82589 -41.02955,-14.61264 -60.40943,-5.4583 -17.89701,7.94052 -31.62489,23.25586 -41.53765,39.72366 -14.71166,26.11679 -16.19805,60.9749 1.72515,85.96384 31.35075,43.90917 76.84484,74.30525 118.38021,107.74033 5.7033,3.22646 9.83336,10.45408 16.74479,10.97842 7.02706,-1.17594 6.11605,-10.13683 9.40625,-14.9375 12.61759,-30.34536 32.47511,-56.65064 55.78792,-79.61076 17.40268,-18.04865 37.45253,-34.81417 48.33708,-57.92049 14.06632,-34.85158 -0.49148,-77.602 -30.32741,-99.48008 -12.71966,-9.50161 -28.39907,-15.45373 -44.39134,-15.26992 z m -7.96875,30.5625 c 34.61599,0.46482 62.81505,34.99805 58.71875,68.875 -2.05589,20.29679 -18.99502,34.48457 -32.5125,48.09625 -22.34193,20.58148 -43.82725,43.19214 -57.14375,70.90375 -2.1231,4.18606 -4.08642,8.44749 -5.875,12.78125 -36.53728,-28.74211 -77.50916,-54.00044 -106,-91.03125 -14.83444,-18.79914 -12.83262,-46.64328 0.34375,-65.84375 11.23799,-16.43766 29.42425,-30.82346 50.18507,-29.33665 10.98609,0.50483 21.02533,5.96479 29.72118,12.27415 7.74377,3.39765 14.00407,-3.79488 18.71399,-8.79179 11.96626,-10.80287 27.53826,-18.20219 43.84851,-17.92696 z"
       style="opacity:0.1;fill:#0d0d0d;fill-opacity:1" />
  </g>
  <g
     transform="matrix(-0.15079689,-0.391459,-0.31728986,0.14894969,157.87512,6.3760354)"
     id="g4722">
    <g
       transform="translate(53.67653,-18.37914)"
       id="g4724">
      <path
         id="path4726"
         d="m -140.96875,130.125 c -2.51031,2.22593 -1.23053,7.39031 -2.375,10.65625 -3.0561,20.46793 -10.74013,39.83967 -18.78125,58.875 12.29149,-10.51078 27.43413,-20.83921 31.09375,-37.59375 2.1948,-10.2071 2.36388,-23.53808 -7.1875,-30.125 -0.84944,-0.52186 -1.64853,-1.84137 -2.75,-1.8125 z"
         style="opacity:0.1;fill:#ffffff;fill-opacity:1" />
      <path
         id="path4728"
         d="m -140.5625,129 c -4.57782,0.19748 -2.25405,7.11361 -3.6875,10.0625 -2.84296,22.14787 -11.98128,43.32513 -20.15625,63.5 9.94957,-7.49206 19.80156,-15.42648 27.625,-25.1875 7.76656,-11.27943 11.02215,-27.04944 5.125,-39.8125 -2.25629,-3.30805 -5.38629,-6.7956 -8.90625,-8.5625 z"
         style="opacity:0.1;fill:#ffffff;fill-opacity:1" />
      <path
         id="path4730"
         d="m -141.0625,127.90625 c -5.26329,0.27828 -2.77971,7.71027 -4.28125,11 -2.80475,22.67886 -12.51512,43.6912 -20.5,64.8125 4.48977,0.1237 7.77307,-5.42633 11.46875,-7.59375 11.08694,-9.15027 22.77626,-19.489 25.71875,-34.3125 2.10545,-10.84764 1.92735,-24.40468 -8.03125,-31.53125 -1.23218,-0.8127 -2.66821,-2.66471 -4.375,-2.375 z"
         style="opacity:0.1;fill:#ffffff;fill-opacity:1" />
      <path
         id="path4732"
         d="m -141.25,126.8125 c -6.47314,0.49331 -3.67048,9.36813 -5.375,13.46875 -3.12822,22.03204 -12.40381,42.5225 -20.34375,63.09375 -0.116,3.23562 4.91973,0.97142 5.9375,-0.34375 12.33499,-10.59828 27.40992,-20.62148 32.28125,-36.875 2.94728,-10.1676 4.05125,-22.80152 -2.4375,-31.8125 -2.76427,-2.66393 -5.82724,-7.58228 -10.0625,-7.53125 z"
         style="opacity:0.1;fill:#ffffff;fill-opacity:1" />
      <path
         id="path4734"
         d="m -141.4375,125.71875 c -2.85788,0.0641 -5.0723,2.16901 -5,5.0625 -1.91462,19.06848 -7.63132,37.51677 -14.83071,55.23482 -1.98363,6.03983 -5.72194,11.60011 -6.82554,17.89018 0.2879,3.32316 5.16575,2.39668 6.84375,0.59375 8.97537,-7.0213 17.85985,-14.43213 25.49202,-22.91136 8.42664,-10.63052 12.096,-24.72054 9.61466,-38.24845 -0.98886,-7.51312 -6.72927,-13.78202 -13.10668,-17.46519 -0.69954,-0.21019 -1.4614,-0.29342 -2.1875,-0.15625 z"
         style="opacity:0.1;fill:#ffffff;fill-opacity:1" />
      <path
         id="path4736"
         d="m -141.59375,124.59375 c -3.04847,0.24727 -5.78572,2.24459 -5.83747,5.51147 -1.53287,11.69987 -3.48732,23.43921 -7.35003,34.70728 -3.91179,12.80705 -9.49239,24.9611 -14.19724,37.41397 -1.20939,2.79376 1.31166,5.50182 4.16599,5.02353 5.38658,-1.21714 9.11593,-6.11537 13.43128,-9.3239 9.10144,-7.90633 18.98027,-15.8017 23.36403,-27.39927 4.30346,-10.19971 5.07642,-22.1389 1.48594,-32.68308 -2.53415,-5.51819 -7.17351,-10.32453 -12.59375,-13.09375 -0.80032,-0.21197 -1.6343,-0.30137 -2.46875,-0.15625 z"
         style="opacity:0.1;fill:#ffffff;fill-opacity:1" />
      <path
         id="path4738"
         d="m -141.71875,123.5 c -5.67901,0.0195 -7.35094,5.79788 -7.45681,10.45828 -2.28613,23.94001 -12.32382,46.09611 -20.94944,68.29172 -1.86727,5.50917 5.8766,7.96632 9.375,4.59375 10.39644,-8.1968 21.37186,-16.4882 29.15625,-27.25 8.36542,-12.57484 11.38116,-29.73515 5.21875,-44 -3.34515,-5.05375 -7.78118,-10.89351 -14.03125,-12.15625 -0.43808,0.009 -0.87915,-0.0317 -1.3125,0.0625 z"
         style="opacity:0.1;fill:#ffffff;fill-opacity:1" />
      <path
         id="path4740"
         d="m -141.28125,122.34375 c -5.73822,-0.12 -9.02268,5.19345 -8.84375,10.46875 -2.22779,24.25083 -12.30726,46.68233 -21.09375,69.15625 -2.01939,5.982 5.88657,9.66308 10.34375,6.28125 10.61179,-7.93689 21.15859,-16.4625 29.43026,-26.87244 9.22356,-13.17373 12.59814,-31.35413 6.03849,-46.34631 -3.57277,-5.27182 -8.91542,-12.52684 -15.875,-12.6875 z"
         style="opacity:0.1;fill:#ffffff;fill-opacity:1" />
      <path
         id="path4742"
         d="m -141.96875,121.28125 c -5.97851,0.21295 -9.36149,5.83935 -9.25,11.375 -2.23123,24.26739 -12.3626,46.676 -21.09375,69.09375 -2.11489,6.37291 5.80542,11.08587 11.09375,7.90625 10.56586,-6.91339 19.86305,-15.78445 28.625,-24.875 11.00975,-13.71922 15.36784,-33.77882 8.1875,-50.25 -3.72863,-5.69625 -8.9109,-12.25299 -16,-13.3125 -0.52115,0.0135 -1.04635,-0.0399 -1.5625,0.0625 z"
         style="opacity:0.1;fill:#ffffff;fill-opacity:1" />
      <path
         id="path4744"
         d="m -141.53125,120.125 c -5.99139,0.0946 -10.56531,5.09497 -10.625,11 -2.10992,24.30969 -11.9506,47.07051 -21,69.46875 -2.82672,6.5498 4.25606,13.05644 10.65625,10.75 10.26809,-4.92408 17.93088,-13.99008 26.53125,-21.3125 14.3977,-13.82493 20.53154,-36.69684 12.84375,-55.40625 -3.80228,-6.24988 -10.35173,-14.62862 -18.40625,-14.5 z"
         style="opacity:0.1;fill:#ffffff;fill-opacity:1" />
    </g>
    <path
       id="path4746"
       d="m -89.63634,162.04206 c 5.556862,-5.65327 6.914,-7.33539 8.555628,-10.60436 2.639329,-5.25566 3.642092,-9.96417 3.384395,-15.8915 -0.234271,-5.38824 -1.177071,-7.98659 -4.046509,-11.15213 -2.478755,-2.73458 -3.355865,-3.15147 -5.10831,-2.42799 -1.594254,0.65816 -1.639121,0.79978 -2.362358,7.45776 -0.97519,8.97734 -4.018839,20.07836 -9.587436,34.96784 -1.1534,3.08407 -0.79182,4.3501 1.245856,4.36189 1.054824,0.006 2.617857,-1.31866 7.918734,-6.71151 z"
       style="fill:#ffffff;fill-opacity:0.93989066;stroke:#fffffe;stroke-width:5;stroke-linecap:round;stroke-linejoin:round;stroke-miterlimit:4;stroke-opacity:0.37704917;stroke-dasharray:none" />
  </g>
  <text
     xml:space="preserve"
     style="font-size:144px;font-style:normal;font-variant:normal;font-weight:bold;font-stretch:normal;line-height:125%;letter-spacing:0px;word-spacing:0px;fill:#000000;fill-opacity:1;stroke:none;font-family:Cantarell;-inkscape-font-specification:Cantarell Bold"
     x="72.328415"
     y="153.53854"
     id="text3042"
     sodipodi:linespacing="125%"><tspan
       sodipodi:role="line"
       id="tspan3044"
       x="72.328415"
       y="153.53854">t</tspan></text>
</svg>
